M48
; DRILL file {KiCad 9.0.0} date 2025-08-01T20:17:33+0530
; FORMAT={-:-/ absolute / metric / decimal}
; #@! TF.CreationDate,2025-08-01T20:17:33+05:30
; #@! TF.GenerationSoftware,Kicad,Pcbnew,9.0.0
; #@! TF.FileFunction,Plated,1,2,PTH
FMAT,2
METRIC
; #@! TA.AperFunction,Plated,PTH,ComponentDrill
T1C0.700
; #@! TA.AperFunction,Plated,PTH,ComponentDrill
T2C0.800
; #@! TA.AperFunction,Plated,PTH,ComponentDrill
T3C0.813
; #@! TA.AperFunction,Plated,PTH,ComponentDrill
T4C1.000
; #@! TA.AperFunction,Plated,PTH,ComponentDrill
T5C1.100
%
G90
G05
T1
X123.38Y-90.88
X131.0Y-90.88
T2
X97.5Y-90.88
X97.5Y-98.5
X97.5Y-109.57
X97.5Y-117.19
X123.195Y-101.26
X123.195Y-103.8
X123.195Y-106.34
X123.195Y-108.88
X130.815Y-101.26
X130.815Y-103.8
X130.815Y-106.34
X130.815Y-108.88
X177.38Y-79.88
X177.69Y-86.38
X177.69Y-91.88
X177.69Y-97.88
X177.69Y-108.38
X177.88Y-114.88
X177.88Y-121.88
X177.88Y-128.88
X185.0Y-79.88
X185.31Y-86.38
X185.31Y-91.88
X185.31Y-97.88
X185.31Y-108.38
X185.5Y-114.88
X185.5Y-121.88
X185.5Y-128.88
T3
X142.88Y-95.38
X142.88Y-97.92
X142.88Y-100.46
X142.88Y-103.0
X142.88Y-105.54
X142.88Y-108.08
X142.88Y-110.62
X142.88Y-113.16
X150.5Y-95.38
X150.5Y-97.92
X150.5Y-100.46
X150.5Y-103.0
X150.5Y-105.54
X150.5Y-108.08
X150.5Y-110.62
X150.5Y-113.16
T4
X209.317Y-97.927
X209.317Y-100.468
X209.317Y-103.007
X209.317Y-105.547
X209.317Y-108.087
X216.938Y-97.927
X216.938Y-100.468
X216.938Y-103.007
X216.938Y-105.547
X216.938Y-108.087
T5
X105.96Y-90.88
X108.5Y-90.88
X111.04Y-90.88
M30
